# xmcd CD database file
#
# Track frame offsets:
#	150
#	19526
#	41191
#	61987
#	83301
#
# Disc length: 1608 seconds
#
# Revision: 0
# Processed by: cddbd v1.5PL3 Copyright (c) Steve Scherf et al.
# Submitted via: CDex 1.50Beta7
#
DISCID=2f064605
DTITLE=Akeboshi - White reply -Limited Edition-
DYEAR=2003
DGENRE=Blues
TTITLE0=Tall boy
TTITLE1=Morning high
TTITLE2=Not real
TTITLE3=White reply
TTITLE4=MONEY
EXTD=YEAR: 2003
EXTT0=
EXTT1=
EXTT2=
EXTT3=
EXTT4=
PLAYORDER=
